Coordinates
version=1
nRows=7
nColumns=40
inDegrees=yes

Units are S.I. units (second, meters, Newtons, ...)
If the header above contains a line with 'inDegrees', this indicates whether rotational values are in degrees (yes) or radians (no).

endheader
time	pelvis_tilt	pelvis_list	pelvis_rotation	pelvis_tx	pelvis_ty	pelvis_tz	hip_flexion_r	hip_adduction_r	hip_rotation_r	knee_angle_r	knee_angle_r_beta	ankle_angle_r	subtalar_angle_r	mtp_angle_r	hip_flexion_l	hip_adduction_l	hip_rotation_l	knee_angle_l	knee_angle_l_beta	ankle_angle_l	subtalar_angle_l	mtp_angle_l	lumbar_extension	lumbar_bending	lumbar_rotation	arm_flex_r	arm_add_r	arm_rot_r	elbow_flex_r	pro_sup_r	wrist_flex_r	wrist_dev_r	arm_flex_l	arm_add_l	arm_rot_l	elbow_flex_l	pro_sup_l	wrist_flex_l	wrist_dev_l
      0.37500000	    -10.85847177	     -1.90196307	      2.99019340	     -0.54601309	      0.93456432	      0.27410886	     37.00597922	     -0.66861632	    -12.38631228	     46.20331784	      0.80640002	     18.58810338	      0.00000000	      0.00000000	     25.36995942	     -5.71915140	      6.78862914	    117.04233517	      2.04277411	     -0.20598386	      0.00000000	      0.00000000	    -21.45285644	      6.14045298	     -9.88478916	     -0.39977000	    -19.10043049	     -8.17749266	    102.48242122	     46.88787808	      0.00000000	      0.00000000	    -14.16009597	    -14.90433533	    -12.35490244	     78.72702517	     43.93297755	      0.00000000	      0.00000000
      0.38000000	    -10.38772661	     -1.47731735	      1.78344251	     -0.51417149	      0.93514677	      0.27576948	     34.86836263	     -0.25227394	    -11.10247629	     47.28842375	      0.82533869	     20.72421278	      0.00000000	      0.00000000	     27.73176621	     -5.54933447	      6.14591877	    118.14298782	      2.06198413	      0.50091238	      0.00000000	      0.00000000	    -21.90520592	      5.11759610	     -8.41728153	      2.87604310	    -18.56880326	     -7.84078059	    104.07179975	     46.96275219	      0.00000000	      0.00000000	    -15.81706122	    -14.68270348	    -12.07363316	     76.71310657	     43.83597742	      0.00000000	      0.00000000
      0.38500000	     -9.96444396	     -1.01639874	      0.59656589	     -0.48226209	      0.93584459	      0.27749230	     32.61105570	      0.06229462	     -9.73290357	     48.01237410	      0.83797401	     21.83099756	      0.00000000	      0.00000000	     30.17508800	     -5.42103200	      5.45546793	    118.89590052	      2.07512493	      0.87541007	      0.00000000	      0.00000000	    -22.19376844	      3.92385966	     -6.62294132	      5.81045372	    -18.66780413	     -7.93581976	    105.51002686	     47.03311247	      0.00000000	      0.00000000	    -17.44478664	    -14.24762600	    -11.78977340	     75.45388784	     43.77413990	      0.00000000	      0.00000000
      0.39000000	     -9.51339363	     -0.46424686	     -0.48838305	     -0.45011102	      0.93677338	      0.27896765	     30.18383652	      0.05413179	     -8.60420210	     48.51935849	      0.84682256	     23.22188422	      0.00000000	      0.00000000	     32.55160622	     -5.18053829	      4.78856794	    119.24853385	      2.08127954	      1.42880941	      0.00000000	      0.00000000	    -22.44872329	      2.74813934	     -5.17560263	      8.84764301	    -18.52696150	     -7.80471564	    107.15713294	     47.12391409	      0.00000000	      0.00000000	    -19.12403159	    -14.09567791	    -11.49833910	     74.07506645	     43.70892449	      0.00000000	      0.00000000
      0.39500000	     -9.08923747	      0.15078543	     -1.43921112	     -0.41785115	      0.93778020	      0.28029361	     27.67737096	     -0.19570445	     -7.61688081	     48.78026020	      0.85137615	     24.38544662	      0.00000000	      0.00000000	     34.94624037	     -4.87445886	      4.12647066	    119.25726626	      2.08143195	      2.01508477	      0.00000000	      0.00000000	    -22.47879443	      1.57809050	     -3.88622146	     11.94680821	    -18.31932492	     -7.52386273	    108.85874858	     47.22198704	      0.00000000	      0.00000000	    -20.94168559	    -14.07657528	    -11.16397074	     72.79033191	     43.65902832	      0.00000000	      0.00000000
      0.40000000	     -8.77015717	      0.75922542	     -2.25996420	     -0.38557311	      0.93862703	      0.28149321	     25.19807073	     -0.58693758	     -6.70891462	     48.80346778	      0.85178120	     25.07801080	      0.00000000	      0.00000000	     37.45986225	     -4.55601250	      3.58138351	    119.02577160	      2.07739161	      2.55667791	      0.00000000	      0.00000000	    -22.38249360	      0.32684352	     -2.85233686	     14.91842901	    -18.15099844	     -7.13881297	    110.43687416	     47.31458743	      0.00000000	      0.00000000	    -22.81460049	    -14.14319779	    -10.76723325	     71.82569276	     43.64229907	      0.00000000	      0.00000000
      0.40500000	     -8.52129969	      1.39554447	     -2.97790007	     -0.35308984	      0.93940164	      0.28259170	     22.73473495	     -1.14876948	     -5.96127010	     48.64905666	      0.84908622	     25.31193477	      0.00000000	      0.00000000	     39.97351142	     -4.23471280	      2.99807847	    118.50249831	      2.06825877	      3.08458988	      0.00000000	      0.00000000	    -22.02193696	     -0.82056039	     -1.92011664	     17.87133755	    -18.03303795	     -6.59814106	    111.95487467	     47.40589457	      0.00000000	      0.00000000	    -24.95990177	    -14.31547846	    -10.32173441	     71.28248851	     43.67222396	      0.00000000	      0.00000000
